<svg width="500" height="500" viewBox="0 0 500 500" fill="none" xmlns="http://www.w3.org/2000/svg">
<g clip-path="url(#clip0_16_18)">
<path d="M27.1355 223L115.185 70.4936C124.831 53.786 142.658 43.4936 161.95 43.4936H338.05C357.342 43.4936 375.169 53.786 384.815 70.4936L472.864 223C482.511 239.708 482.511 260.292 472.864 277L384.815 429.506C375.169 446.214 357.342 456.506 338.05 456.506H161.95C142.658 456.506 124.831 446.214 115.185 429.506L27.1355 277C17.4893 260.292 17.4893 239.708 27.1355 223Z" fill="#3D3C44" stroke="#C64DFF" stroke-width="20"/>
<path d="M290.405 409.301L315 384.839L274.946 345L315 305.161L290.405 280.699L250.351 320.538L209.595 280L185 304.462L225.757 345L185 385.538L209.595 410L250.351 369.462L290.405 409.301Z" fill="#F07613"/>
<path d="M332 114.595L307.426 90L226.681 170.811L191.574 135.676L167 160.27L226.681 220L332 114.595Z" fill="#70B919"/>
</g>
<defs>
<clipPath id="clip0_16_18">
<rect width="500" height="500" fill="white"/>
</clipPath>
</defs>
</svg>
