<svg width="500" height="500" viewBox="0 0 500 500" fill="none" xmlns="http://www.w3.org/2000/svg">
<g clip-path="url(#clip0_16_50)">
<path d="M27.1355 223L115.185 70.4936C124.831 53.786 142.658 43.4936 161.95 43.4936H338.05C357.342 43.4936 375.169 53.786 384.815 70.4936L472.864 223C482.511 239.708 482.511 260.292 472.864 277L384.815 429.506C375.169 446.214 357.342 456.506 338.05 456.506H161.95C142.658 456.506 124.831 446.214 115.185 429.506L27.1355 277C17.4893 260.292 17.4893 239.708 27.1355 223Z" fill="#3D3C44" stroke="#C64DFF" stroke-width="20"/>
<path d="M51 235.301H376V265.301H51V235.301Z" fill="#FFC64D"/>
<path d="M450 250.301L375 293.603V207L450 250.301Z" fill="#FFC64D"/>
<circle cx="250.5" cy="249.5" r="37.5" fill="#F07613"/>
</g>
<defs>
<clipPath id="clip0_16_50">
<rect width="500" height="500" fill="white"/>
</clipPath>
</defs>
</svg>
