<svg width="500" height="500" viewBox="0 0 500 500" fill="none" xmlns="http://www.w3.org/2000/svg">
<g clip-path="url(#clip0_16_43)">
<path d="M27.1355 223L115.185 70.4936C124.831 53.786 142.658 43.4936 161.95 43.4936H338.05C357.342 43.4936 375.169 53.786 384.815 70.4936L472.864 223C482.511 239.708 482.511 260.292 472.864 277L384.815 429.506C375.169 446.214 357.342 456.506 338.05 456.506H161.95C142.658 456.506 124.831 446.214 115.185 429.506L27.1355 277C17.4893 260.292 17.4893 239.708 27.1355 223Z" fill="#3D3C44" stroke="#C64DFF" stroke-width="20"/>
<path d="M228.016 287.734C228.016 274.047 229.562 263.266 232.656 255.391C235.75 247.422 240.766 240.531 247.703 234.719C254.641 228.906 259.891 223.609 263.453 218.828C267.109 213.953 268.938 208.609 268.938 202.797C268.938 188.641 262.844 181.562 250.656 181.562C245.031 181.562 240.484 183.625 237.016 187.75C233.547 191.875 231.719 197.453 231.531 204.484H184C184.188 185.734 190.094 171.156 201.719 160.75C213.344 150.25 229.656 145 250.656 145C271.562 145 287.734 149.828 299.172 159.484C310.703 169.141 316.469 182.875 316.469 200.688C316.469 208.469 314.922 215.547 311.828 221.922C308.734 228.297 303.766 234.812 296.922 241.469L280.75 256.516C276.156 260.922 272.969 265.469 271.188 270.156C269.406 274.75 268.422 280.609 268.234 287.734H228.016ZM222.25 330.484C222.25 323.547 224.734 317.875 229.703 313.469C234.766 308.969 241.047 306.719 248.547 306.719C256.047 306.719 262.281 308.969 267.25 313.469C272.312 317.875 274.844 323.547 274.844 330.484C274.844 337.422 272.312 343.141 267.25 347.641C262.281 352.047 256.047 354.25 248.547 354.25C241.047 354.25 234.766 352.047 229.703 347.641C224.734 343.141 222.25 337.422 222.25 330.484Z" fill="#FFC64D"/>
</g>
<defs>
<clipPath id="clip0_16_43">
<rect width="500" height="500" fill="white"/>
</clipPath>
</defs>
</svg>
